<?xml version="1.0" standalone="no"?>
<!DOCTYPE svg PUBLIC "-//W3C//DTD SVG 20010904//EN"
 "http://www.w3.org/TR/2001/REC-SVG-20010904/DTD/svg10.dtd">
<svg version="1.0" xmlns="http://www.w3.org/2000/svg"
 width="512.000000pt" height="512.000000pt" viewBox="0 0 512.000000 512.000000"
 preserveAspectRatio="xMidYMid meet">
<metadata>
Created by potrace 1.14, written by Peter Selinger 2001-2017
</metadata>
<g transform="translate(0.000000,512.000000) scale(0.100000,-0.100000)"
fill="#000000" stroke="none">
<path d="M2516 5093 c-7 -16 -66 -176 -130 -358 -64 -181 -121 -340 -126 -352
-12 -29 3 -70 27 -76 24 -7 523 -7 546 -1 39 12 39 48 -2 161 -22 60 -67 187
-101 283 -34 96 -65 184 -70 195 -5 11 -16 40 -24 65 -24 74 -37 98 -60 104
-36 10 -45 7 -60 -21z"/>
<path d="M757 4372 c-28 -34 -27 -43 24 -149 28 -59 63 -133 76 -163 39 -85
202 -423 211 -440 5 -8 22 -16 38 -18 26 -2 50 19 218 186 104 104 192 195
196 203 4 8 4 23 0 35 -8 21 -42 39 -255 139 -49 24 -148 71 -220 105 -267
128 -266 127 -288 102z"/>
<path d="M4320 4382 c-35 -12 -666 -310 -697 -330 -51 -32 -36 -55 170 -260
169 -169 197 -193 221 -190 17 2 33 13 42 28 13 24 115 236 202 420 22 47 60
128 85 181 28 59 44 103 41 116 -6 23 -41 42 -64 35z"/>
<path d="M2380 3949 c-25 -5 -58 -11 -75 -14 -106 -15 -287 -80 -410 -146
-380 -204 -644 -576 -715 -1009 -17 -103 -20 -359 -5 -420 3 -14 8 -43 11 -65
11 -71 62 -228 103 -319 69 -150 198 -329 304 -425 22 -20 48 -43 56 -52 9 -9
51 -41 93 -72 188 -134 377 -211 613 -251 136 -23 370 -15 505 17 457 107 817
411 994 840 41 97 80 243 92 337 15 120 9 385 -10 440 -3 8 -7 31 -10 50 -21
146 -136 393 -253 545 -216 279 -495 454 -848 531 -90 19 -370 27 -445 13z"/>
<path d="M725 2855 c-22 -7 -98 -34 -170 -60 -72 -26 -166 -59 -210 -75 -315
-109 -333 -117 -340 -141 -9 -28 2 -54 28 -67 32 -15 700 -252 726 -257 13 -2
30 4 41 15 18 18 19 35 17 295 -2 261 -3 277 -21 291 -23 16 -20 16 -71 -1z"/>
<path d="M4337 2863 c-10 -3 -22 -14 -26 -26 -14 -37 -12 -542 2 -561 21 -28
46 -25 177 22 69 24 154 55 190 67 36 13 130 47 210 75 80 29 155 55 167 57
29 7 63 40 63 61 -1 39 -9 44 -216 117 -216 76 -299 106 -432 154 -63 23 -114
40 -115 40 -1 -1 -10 -3 -20 -6z"/>
<path d="M1066 1495 c-9 -13 -16 -26 -16 -29 0 -2 -43 -93 -95 -201 -52 -108
-95 -198 -95 -200 0 -2 -29 -63 -64 -135 -56 -117 -63 -136 -54 -161 9 -27 23
-34 58 -29 18 2 84 33 480 221 251 120 235 110 235 147 0 29 -22 54 -190 222
-204 205 -224 218 -259 165z"/>
<path d="M3792 1327 c-173 -173 -193 -197 -190 -223 3 -32 -5 -27 218 -132 69
-33 170 -81 225 -107 267 -127 280 -132 305 -123 52 19 50 35 -35 206 -36 73
-65 134 -65 136 0 2 -36 79 -80 170 -44 91 -89 186 -100 210 -19 43 -35 56
-68 56 -10 0 -104 -87 -210 -193z"/>
<path d="M2274 806 c-9 -7 -16 -24 -16 -38 0 -14 30 -111 67 -214 84 -235 151
-425 172 -485 25 -74 85 -91 112 -31 7 15 44 117 83 227 38 110 85 241 103
290 67 181 76 214 65 235 -5 10 -18 21 -27 24 -10 2 -136 4 -280 4 -189 0
-267 -4 -279 -12z"/>
</g>
</svg>
